<?xml version="1.0" encoding="utf-8"?>
<!-- Generator: Adobe Illustrator 22.1.0, SVG Export Plug-In . SVG Version: 6.00 Build 0)  -->
<svg version="1.1" id="Layer_1" xmlns="http://www.w3.org/2000/svg" xmlns:xlink="http://www.w3.org/1999/xlink" x="0px" y="0px"
	 viewBox="0 0 371 166" width="120px" height="80px" style="enable-background:new 0 0 371 166;" xml:space="preserve">
<style type="text/css">
	.st0{fill:#004F7D;}
</style>
<g>
	<path class="st0" d="M-0.4,0h51.5v20.9H23.3v6.4h26.1v19.5H23.3v7h29.6v20.9H-0.4V0z"/>
	<path class="st0" d="M55.5,19.2h27.1l7.9,30h0.4l7.6-30h26.1l-21.5,55.6H76.7L55.5,19.2z"/>
	<path class="st0" d="M187.4,47.6c0,0.9,0,1.8-0.1,2.8c0,1-0.1,1.7-0.2,2.4h-37.4c0.1,1,0.4,1.9,1,2.6c0.6,0.8,1.3,1.4,2.2,2
		c0.9,0.6,1.9,1,3,1.3c1.1,0.3,2.2,0.4,3.3,0.4c2.3,0,4.1-0.4,5.7-1.2c1.5-0.8,2.7-1.7,3.4-2.7l17.3,8.8c-2.5,4-6,7.2-10.7,9.5
		c-4.7,2.3-10.1,3.5-16.3,3.5c-4,0-7.9-0.6-11.7-1.9c-3.8-1.3-7.2-3.2-10.1-5.7c-2.9-2.5-5.3-5.6-7-9.4c-1.8-3.7-2.6-8.1-2.6-13
		c0-4.6,0.8-8.7,2.4-12.4c1.6-3.7,3.8-6.8,6.6-9.4c2.8-2.6,6.1-4.6,9.8-6c3.8-1.4,7.8-2.1,12.1-2.1c4.4,0,8.3,0.8,11.9,2.3
		c3.6,1.5,6.7,3.6,9.2,6.3c2.6,2.7,4.6,5.9,6,9.7C186.7,39.1,187.4,43.2,187.4,47.6z M166.4,39.6c0-2-0.7-3.6-2.2-4.9
		c-1.4-1.3-3.4-1.9-5.9-1.9c-2.7,0-4.8,0.7-6.2,2.2c-1.5,1.5-2.3,3-2.5,4.5H166.4z"/>
	<path class="st0" d="M196,19.2h23.8v6.1h0.2c1.4-2,3.5-3.8,6.3-5.3c2.8-1.5,6-2.3,9.5-2.3c3.9,0,7.1,0.7,9.6,2.1
		c2.6,1.4,4.6,3.2,6.1,5.4c1.5,2.2,2.6,4.7,3.2,7.5c0.6,2.7,0.9,5.5,0.9,8.2v33.8h-24.4V45.2c0-2.8-0.4-4.8-1.3-5.9
		c-0.9-1.1-2.2-1.7-4-1.7c-1.6,0-2.9,0.7-4,2c-1,1.3-1.5,3.2-1.5,5.7v29.6H196V19.2z"/>
	<path class="st0" d="M290.5,76.3c-7.5,0-13-1.6-16.6-4.8c-3.6-3.2-5.4-8.2-5.4-15V36.7h-7.8V19.2h7.7V6.8h23.7v12.5h12v17.4h-12
		v14.8c0,2.7,0.6,4.5,1.7,5.4c1.2,0.9,2.8,1.4,4.8,1.4c0.8,0,1.6-0.1,2.4-0.2c0.8-0.1,1.5-0.3,2-0.4v16.7c-1.3,0.6-3,1-5.3,1.4
		C295.5,76.1,293.1,76.3,290.5,76.3z"/>
</g>
<g>
	<path class="st0" d="M155.2,165.6c-5.9,0-11.4-0.9-16.4-2.7s-9.4-4.5-13.1-7.9c-3.7-3.4-6.6-7.6-8.7-12.4
		c-2.1-4.9-3.2-10.3-3.2-16.3c0-6,1.1-11.4,3.2-16.3c2.1-4.9,5-9,8.7-12.5c3.7-3.5,8-6.1,12.9-8c4.9-1.9,10.2-2.8,15.9-2.8
		c5.8,0,11.4,1,16.6,2.9c5.2,1.9,9.5,4.5,12.8,7.8l-14.7,17.6c-1.6-1.8-3.4-3.3-5.5-4.4c-2.1-1.1-4.7-1.6-7.8-1.6c-2,0-4,0.4-6,1.2
		c-1.9,0.8-3.6,2-5.1,3.5c-1.5,1.5-2.7,3.3-3.6,5.4c-0.9,2.1-1.4,4.5-1.4,7.1c0,5.2,1.4,9.5,4.1,12.7c2.7,3.3,7.1,4.9,13.1,4.9
		c1.1,0,2.1-0.1,3.3-0.3c1.1-0.2,2-0.4,2.6-0.8v-5.7h-12v-19.8h34.3v40.9c-1.8,1.1-3.8,2-6.1,2.9c-2.3,0.9-4.7,1.6-7.3,2.3
		c-2.6,0.6-5.3,1.1-8.1,1.5C160.9,165.5,158,165.6,155.2,165.6z"/>
	<path class="st0" d="M196.3,108.2h23.5v6.3h0.2c1.2-2.3,3-4.1,5.3-5.6c2.4-1.5,5.1-2.2,8.3-2.2c1.9,0,3.4,0.2,4.6,0.5l-1.9,20.7
		c-0.8-0.2-1.6-0.4-2.6-0.5c-1-0.1-1.8-0.2-2.6-0.2c-3.2,0-5.7,0.9-7.6,2.7c-1.9,1.8-2.9,4.1-2.9,6.8v26.9h-24.4V108.2z"/>
	<path class="st0" d="M272.8,128.4c0-1.7-0.6-2.9-1.7-3.7c-1.2-0.8-2.7-1.2-4.6-1.2c-2.3,0-4.4,0.5-6.4,1.4c-2,1-3.8,2.1-5.3,3.3
		l-12.2-12c3.4-3.2,7.4-5.7,12-7.5c4.7-1.8,9.4-2.6,14.4-2.6c5.3,0,9.7,0.7,13.1,2.2c3.4,1.5,6.2,3.5,8.2,6.1c2,2.6,3.4,5.6,4.2,9.1
		c0.8,3.5,1.2,7.1,1.2,11v29.3h-22.1v-4.4h-0.2c-1.4,2.1-3.4,3.6-6,4.5c-2.6,0.9-5.1,1.4-7.6,1.4c-2.2,0-4.4-0.3-6.7-1
		c-2.3-0.6-4.4-1.7-6.2-3.1c-1.9-1.4-3.4-3.2-4.6-5.5c-1.2-2.3-1.8-5-1.8-8.3c0-3.9,1-7,3-9.5c2-2.4,4.6-4.3,7.7-5.7
		c3.1-1.4,6.6-2.3,10.4-2.8c3.8-0.5,7.6-0.7,11.3-0.7V128.4z M273,140.7c-3.6,0-6.5,0.4-8.7,1.2c-2.2,0.8-3.3,2.2-3.3,4.3
		c0,0.8,0.2,1.4,0.5,2c0.4,0.5,0.8,1,1.4,1.3c0.6,0.4,1.2,0.6,1.8,0.8c0.7,0.2,1.3,0.3,1.8,0.3c2.3,0,4.2-0.7,5.6-2.2
		c1.4-1.5,2.1-3.4,2.1-5.7v-1.9H273z"/>
	<path class="st0" d="M370.2,135.7c0,3.7-0.5,7.3-1.6,10.8c-1.1,3.5-2.7,6.7-4.8,9.5c-2.1,2.8-4.7,5-7.9,6.7
		c-3.2,1.7-6.8,2.5-11,2.5c-3.4,0-6.7-0.7-9.8-2c-3.1-1.3-5.4-3.1-7.1-5.3h-0.2v5.8h-22V83.9h24.4v28.7h0.2c1.6-1.9,3.8-3.4,6.4-4.4
		c2.7-1,5.3-1.5,8-1.5c4.1,0,7.8,0.8,11,2.5c3.2,1.7,5.8,3.9,7.9,6.7c2.1,2.7,3.7,5.8,4.8,9.3C369.6,128.6,370.2,132.2,370.2,135.7z
		 M347.5,135.7c0-2.5-0.8-4.6-2.3-6.4c-1.6-1.8-3.8-2.7-6.8-2.7c-2.9,0-5.2,0.9-6.9,2.7c-1.7,1.8-2.6,4-2.6,6.4
		c0,2.6,0.9,4.8,2.6,6.7c1.7,1.8,4,2.7,6.9,2.7c3,0,5.2-0.9,6.8-2.7C346.8,140.7,347.5,138.4,347.5,135.7z"/>
</g>
</svg>
